# xmcd CD database file
#
# Track frame offsets:
#	150
#	55382
#	111075
#	167043
#
# Disc length: 2921 seconds
#
# Revision: 0
# Processed by: cddbd v1.5.1PL2 Copyright (c) Steve Scherf et al.
# Submitted via: CDex 1.51
#
DISCID=2f0b6704
DTITLE=Llewellyn - Crystal Angels
DYEAR=2005
DGENRE=New Age
TTITLE0=Archangel Michael
TTITLE1=Archangel Gabriel
TTITLE2=Archangel Ariel
TTITLE3=Archangel Raphael
EXTD=YEAR: 2005
EXTT0=
EXTT1=
EXTT2=
EXTT3=
PLAYORDER=
